<svg fill="none" xmlns="http://www.w3.org/2000/svg" viewBox="0 0 335 197">
    <path d="M284.4 87.3c1.6 2.4 4.1 4 1.8 6.2-2.6 2.4-9.8 9.9-9.8 9.9l6.5 14.1 15.4-15.9c5.3-5.6 8.1-11.5 4.7-17.6-3.5-6-18.6 3.3-18.6 3.3Z" fill="#FAAD3A"/>
    <path d="m284.2 87.4 2.2 2.9c1 1.3.2 2.4-.8 3.4l-3.7 3.7a692.5 692.5 0 0 0-5.7 6l6.4 14.2c.1.2.3.2.4.1a1252.1 1252.1 0 0 0 13.8-14.1c2.3-2.4 4.5-4.8 6.1-7.7 1.5-2.6 2.2-5.5 1.6-8.5-.3-2-1.3-4.3-3.2-5.2-3.3-1.5-7.8.4-10.9 1.7a47 47 0 0 0-6.1 3.2c-.3.1 0 .6.2.4 2.5-1.5 5.1-2.8 7.8-3.8 2-.8 4.1-1.4 6.2-1.5 2.6 0 4 1.2 5 3.5 3 7-3.2 13.5-7.7 18.2a933 933 0 0 1-13.1 13.4h.4a193126.4 193126.4 0 0 0-6.4-13.8l.3-.3a1962.4 1962.4 0 0 1 8.1-8.3c.6-.6 1.5-1.2 1.9-2 1.3-2.2-1.2-4-2.4-5.7-.2-.3-.6 0-.4.2Z" fill="#FAAD3A"/>
    <path d="M241.6 129.4c-.3 4.2-4 44.2-6.2 66.7H259l6.4-55 5.3 55h26.8c-2-19-5-49.3-5.8-54.9-1.2-8.2-2.8-22.7-9.7-34.6-4.8-.7-43 8.2-43 8.2.8 2.6 3.2 8.7 2.7 14.6Z" fill="#463363"/>
    <path d="m237.4 172-2.3 24h.6l3.1-33.4c1-11 2.3-22.1 3-33.2a38 38 0 0 0-2.6-14.4l15.9-3.5c7.9-1.7 15.9-3.6 24-4.5.6 0 2.4-.5 2.8.1a57 57 0 0 1 4.6 10.4c2 6.2 3.2 12.6 4.2 19 1 6.7 1.6 13.3 2.3 20a7283 7283 0 0 1 4.1 39.6h.5a8057 8057 0 0 0-3.8-37.7l-2.2-19.2c-.9-6.1-1.9-12.2-3.5-18.2a68.6 68.6 0 0 0-6-14.5c-.1-.2-.7-.2-1-.2-2.7 0-5.6.6-8.3 1.1-4.3.7-8.5 1.6-12.8 2.5l-20.4 4.5-.8.2-.2.3c1.6 4.7 3 9.5 2.8 14.5-1 14.2-2.6 28.4-4 42.5Z" fill="#463363"/>
    <path d="M265.6 141c0-.2-.5-.2-.6 0a404313.9 404313.9 0 0 0-6.4 55h.5l2.5-21 3.7-31.5 3 32.2 2 20.4h.5l-2-21.2-3.2-33.8Z" fill="#463363"/>
    <path d="m173.2 56-3-8.6s-7-4.4-10-6.1c-3.1-1.8-4.5-7.7.5-9.2 1.4-2.5 3.4-2.7 4.6-2 .8-5.7 3.6-6.4 6.8-5.3 3.2 1 5.1 3.8 7 8.1 2 4.3 2.4 6.6 4 11l3 7.6s-3.8 7.9-12.9 4.5Z" fill="#FAD1D5"/>
    <path d="M175.5 41.6a7.7 7.7 0 1 1-15.4 0 7.7 7.7 0 0 1 15.4 0Z" fill="#ED4477"/>
    <path d="M159 40.5c1 1.3 2.8.6 2.6-2 1.8-.2 2.1-2.7 3.8-5 .7 3 2 3.3 3 2.8.9-.4 1.7-1 1.8-3.6 0-2.7.8-3.4 2-3 1.1.3 2.1 3 3.6 6.3 1.4 3.3 1.6 5.9-.5 6.4s-4 1.3-5.2 3.5c-1.2 2.3.2 4.5 4 2.8 3.8-1.7 5-4.3 5-4.3s0-6.8-2.3-12.2c-2.2-5.5-7.3-4.4-7.3-4.4l-6 4.5-4.8 5.1" fill="#FAD1D5"/>
    <path d="M246.7 36c2.8.2 5.7-2.9 5-6.7-.6-3.7-6.6 2-6.6 2l1.6 4.7Z" fill="#5569AF"/>
    <path d="M246.7 36.2c2.1.1 3.8-1.2 4.8-3 .6-1.2 1.3-4.3-.2-5.2-2-1.1-5 1.9-6.4 3.1v.3l1.5 4.7c.1.3.6.1.5-.2l-1.3-4-.2-.6s-.2.3.1 0l1.4-1.1c.8-.7 3.5-2.9 4.4-1.3.8 1.3 0 3.4-.6 4.6a4.5 4.5 0 0 1-4 2.2c-.4 0-.4.5 0 .5Z" fill="#5569AF"/>
    <path d="M218 20c-.5 3.6-1.2 6.7 2.1 12.6 3.3 5.9 4.4 13.3 15.2 11.8.9 2.4 1.4 4.9 1.4 4.9l14.1-3.1-4.5-13.8c6-1.8 6-5.5 4.8-8A44.6 44.6 0 0 0 237.3 11c-3.3-1-15.7-.2-19.2 8.8Z" fill="#FAD1D5"/>
    <path d="M234.5 30.8c.8-1-.8-3.2-1.7-2.3-1 1 1 3 1.7 2.3ZM224.6 32c.9-1-.8-3-1.7-2.2-1 1 1 3 1.7 2.3Z" fill="#292929"/>
    <path d="M229 36.7c-1 0-1.8-.3-2.7-.8-1.3-.8-1.2-2-.9-3 .6-2.7-.6-5-3.4-6.4a.3.3 0 0 1-.1-.4c0-.1.2-.2.3 0 3 1.4 4.4 4 3.7 6.8-.3 1.2-.3 2 .6 2.6a5 5 0 0 0 2.5.7.3.3 0 1 1 0 .5ZM229.5 38.7a.3.3 0 0 1 0-.6 9.5 9.5 0 0 0 5.3-3.4c.1-.1.3-.1.4 0v.3a10 10 0 0 1-5.7 3.7ZM235.5 44.5a.3.3 0 0 1-.1-.5c1.6-.6 3-1.6 4.4-3l.3-.3c.6-.7 1.2-1.4 1.6-2.1l1.1-2.6c.3-.8.6-1.7.6-2.5a.3.3 0 1 1 .5 0 8 8 0 0 1-.6 2.7c-.3.9-.7 1.8-1.2 2.6-.4.8-1 1.6-1.6 2.2l-.3.3a13.1 13.1 0 0 1-4.7 3.2Z" fill="#292929"/>
    <path d="M230.4 25.9c-.4-1.3 1-2 3.2-1.2 2.1.8 2.5 1.8 1.9 1.7-3.8-1-4.9 0-5.1-.5Z" fill="#5569AF"/>
    <path d="M230.6 25.8c-.4-1.8 2.4-1.1 3.2-.8l1.5 1c.2.3.2.3.2.1l-1-.2c-1-.2-1.8-.2-2.7-.2-.1 0-1.1.2-1.2 0-.2-.2-.6 0-.5.3.4.6 1.6.2 2.1.2 1.1 0 2.2.3 3.3.4.2 0 .5 0 .5-.3 0-.4-.4-.8-.7-1-.9-.6-1.9-1-2.9-1.2-1.2-.2-2.6.4-2.3 1.8 0 .4.6.2.5 0ZM222.9 26.4c-1.4-.8-3.2-1.2-3.8-.4-.5.7 0 1.7.5 1.6.6 0 2.8-.4 3.7-.3.5 0 0-.6-.4-.9Z" fill="#5569AF"/>
    <path d="M223 26.2c-1-.5-2.5-1.3-3.6-.7-.8.4-1.2 1.9-.2 2.3h1.3l2.2-.3c.3 0 .8.2 1-.2.2-.4-.5-.9-.7-1-.2-.3-.6 0-.3.3 0 .1.6.4.3.4h-1l-1.8.3h-.6c-.4 0-.5-.3-.4-.8 0-.5.5-.6.9-.7.9 0 1.9.4 2.6.8.3.2.6-.3.3-.4ZM238.7 14.2c-.6 3.5.2 10.4 3.6 14 3.4 3.6 2.9-2.9 2.5-4 2-2.1 5.6-2.5 7 1 .4 1.5-.4 4.1-.4 4.1 2.6-1 3.8-4.5 2.9-6.6-1-2-1.3-6-1-9 .2-3-2.9-10-11.4-7.8-2.4-4.2-4.9-5-9.2-4.4-4 .6-8.4-2-11.8-1-2.2.8-3.4 3.1-.1 6.5-5.2-1.5-9.8-1.3-11.8 3.8s.6 11.7 8.6 11.9c.2-1.8.7-3.3.7-3.3.6 3.8 3.8 3.8 6.7 1.6 3-2.3 5.3-5.7 5.3-5.7-1.2 3.2-.2 3.6 2 3.3 2.3-.2 5-3.7 6.4-4.4Z" fill="#5569AF"/>
    <path d="M238.5 14.2c-.6 3.4 0 7 1.2 10.3.4 1 3.1 6.5 5 4.8.6-.6.6-1.7.6-2.5v-1.6c-.1-.6-.3-.7 0-1.1 1.6-1.5 4-1.7 5.4-.2 1.4 1.5 1 3.7.5 5.4 0 .2.2.4.4.3 2.1-1 3.3-3.3 3.2-5.5 0-1.1-.6-2.2-.8-3.3-.5-1.8-.6-3.7-.5-5.5 0-1.9 0-3.4-.7-5.2a8.5 8.5 0 0 0-3.8-4c-.9-.5-1.9-.8-2.9-.9h-2c-.3 0-2 .5-2.2.2-1.2-2-2.9-3.7-5.3-4.2-1.2-.2-2.4-.1-3.6 0-1.9.3-3.7 0-5.6-.4-2.4-.6-5.4-1.5-7.7 0-2.4 1.8-.6 4.7.9 6.3l.3-.4c-2.7-.7-5.8-1.3-8.4-.1a8 8 0 0 0-4.3 6.3c-.3 2.4.2 4.8 1.8 6.8 1.8 2.3 4.8 3.1 7.6 3.2.2 0 .2-.1.3-.2.1-1.1.3-2.2.7-3.2h-.5c.6 3.1 3.1 3.9 5.8 2.5a20 20 0 0 0 6.6-6.5l-.5-.2c-.3.9-.8 2-.2 3 .4.7 1.6.6 2.3.6 3-.2 4.3-3.3 6.8-4.4.3-.2 0-.6-.3-.5-1.8.9-3 2.7-4.7 3.8-1 .5-2 .7-3.1.5-1.4-.2-.6-2.1-.3-2.9.1-.3-.3-.4-.5-.2a27.3 27.3 0 0 1-4.5 5 7.2 7.2 0 0 1-4 2c-1.8.2-2.7-1.4-3-2.9 0-.2-.4-.2-.4 0-.4 1.1-.6 2.2-.8 3.4l.3-.3c-2.7 0-5.2-.9-7-2.9a8.1 8.1 0 0 1-2-6c.2-2.6 1.6-5.1 3.8-6.3 2.5-1.3 5.7-.7 8.3 0 .3 0 .4-.2.3-.4-1.8-1.8-3.1-4.9 0-6 2.6-1 5.8.4 8.3.9 2.5.4 4.8-.4 7.2 0 2.4.4 4 2.3 5.2 4.3l.3.1c2.8-.7 5.8-.6 8.2 1.4a8.3 8.3 0 0 1 2.8 5.2v3.8c0 1.7.2 3.3.5 4.8.4 1.5 1 2.6.7 4.2a5 5 0 0 1-2.9 3.6l.4.3c.6-2.2.8-4.6-1-6.2-1.9-1.7-4.6-.7-6 1-.1 0-.2 0-.2.2.4 1 .4 2.3.2 3.3-.3 2.7-2.5.1-3.2-1a17.8 17.8 0 0 1-2.5-12.4c0-.3-.5-.5-.5-.1Z" fill="#5569AF"/>
    <path d="M218.4 20.5a.3.3 0 0 1-.2-.3V20c-.2-.6-.3-1.3-.2-2a7 7 0 0 1 1.6-3.3c.4-.5.8-1 1.3-1.3h.4v.4A6 6 0 0 0 220 15c-.8 1-1.3 2-1.5 3.1l.1 1.8v.4a.3.3 0 0 1-.2.3ZM245.2 27.6a.3.3 0 0 1-.2-.3v-1.5l-.4-1.3a9 9 0 0 0-.7-1.8c-.1-.1 0-.3 0-.4l.4.1.8 2 .4 1.3a4 4 0 0 1 0 1.7c0 .1-.1.2-.3.2Z" fill="#292929"/>
    <path d="M172.8 55.6c3 .9 9.6-.7 13-5.3 2.3 5.2 10 22.6 10.6 23.5.6.9 7.7-4.3 15.8-10.8 8-6.5 13-8.4 17.9-7.8 4.9.6 7.2-.2 6.8-2.9l-1-5s5.6 2.3 14.4-3c1.9 5.5 1.7 6.6 2.4 7.4.8.9 7.3-1.9 13.5-1 6.2.9 19 14.6 25 20.2 7.4 7 16 14.5 11.9 22.8-3 5.9-13.4 1.8-13.4 1.8s-.9-2.6-5.5-7.2a2475 2475 0 0 1-12.4-12.6s9.1 27.5 10.9 31.7c-9.3 7.8-36.4 11.8-43.7 8.4-2.4-7.2-10.5-32.2-14.1-39-11 7.7-18.7 15-25.1 17.4-6.5 2.3-12.3 4.6-18.1-11.1-3.3-9-9-27.5-9-27.5Z" fill="#FAAD3A"/>
    <path d="M172.7 55.9c4.7 1.2 10.5-1.8 13.3-5.5h-.5c3.4 7.6 6.7 15.3 10.3 22.8.4.7.5 1.1 1.4.9 1.9-.7 3.7-2.2 5.3-3.3 6-4.3 11.4-9.6 17.9-13.1 2-1.2 4.3-2 6.7-2.3 2.3-.2 4.7.4 7 .2 1.4-.2 2.8-.8 3-2.3.2-1-.2-2.3-.4-3.3l-.6-2.8-.3.3c1.2.5 2.7.5 4 .5 3.7 0 7.4-1.5 10.6-3.4l-.4-.2c.8 2.2 1.3 4.4 2 6.6.5 1.2 1.1 1.2 2.3 1 3.2-.4 6.3-1.2 9.6-1.2 2.5 0 4.5.8 6.6 2 4.7 3 8.8 7 12.8 10.8 4 4 8.2 7.8 12.2 11.7 4.7 4.6 10.6 11 7.5 18-2 4.5-8 3.5-11.8 2.4l-1.3-.4c-.3-.1 0 .2 0 0l-.2-.4c-.9-1.9-2.3-3.6-3.7-5.1-3.8-4.3-8-8.3-12.1-12.4l-2-1.9c-.1-.2-.4 0-.4.3l6.3 18.5 3.8 11 .6 1.6c0 .2.2.4.1.5l-1.4 1c-2 1.3-4.2 2.3-6.3 3.2a75 75 0 0 1-33.2 4.7c-.4-.1-2-.3-2.2-.7l-1.6-5a1065.8 1065.8 0 0 0-9-25.9c-1.1-2.7-2.2-5.4-3.5-8 0-.1-.2-.2-.4 0-6 4.1-11.6 8.8-17.5 13a33.4 33.4 0 0 1-12 5.6c-4.2 1-7.3-1.2-9.6-4.6-3.2-4.9-4.8-11-6.7-16.4L173 55.6c-.1-.4-.6-.2-.5 0 2.5 8.2 5 16.3 7.8 24.3 1.7 5 3.5 10.7 7.6 14.2 2.5 2.2 5.6 2.3 8.6 1.4 4.3-1.2 8-3.2 11.5-5.7 5.8-4.1 11.2-8.7 17-12.7l-.4-.1c2 3.6 3.4 7.6 4.8 11.5l5.4 15.5 3.9 11.7c.3 1 3 1.2 3.8 1.3 2 .3 4 .3 6 .3 6.4-.2 12.8-1.2 19-2.9a39.7 39.7 0 0 0 15.4-7c-2.3-5.7-4.1-11.7-6-17.5L272 75.6l-.4.3 8.9 9c2.2 2.2 4.5 4.3 6.4 6.8 1 1 2 2.4 2.5 3.8.2.6 2 .8 2.4.9 1.9.5 3.9.8 5.8.7 2 0 3.8-.8 5-2.3 1.7-1.9 2-4.7 1.7-7-.4-3-2-5.6-3.8-7.8-2.2-2.8-4.9-5.3-7.5-7.8l-11.6-11.1c-3.7-3.5-7.6-7.2-12.2-9.6-4.9-2.5-10.3-.5-15.4.1-1.1.1-1.3-.7-1.5-1.5-.6-2-1.1-4-1.8-5.8 0-.2-.2-.3-.3-.2a22.6 22.6 0 0 1-10.4 3.4c-1.3 0-2.7 0-3.9-.5-.2 0-.3.1-.3.3l.6 2.8c.3 1.3 1 3.2-.1 4.2-.9.9-2.5.8-3.6.8l-4.2-.3c-5.3 0-10.2 3.3-14.3 6.4-5.3 4-10.3 8.8-16.1 12-.2 0-1.2.6-1.3.4l-.6-1.2-2.3-5L186 50c-.1-.2-.4 0-.5 0-2.6 3.6-8.2 6.4-12.7 5.3-.3-.1-.4.4-.1.5Z" fill="#FAAD3A"/>
    <path d="M171.7 49.5c-.8 0-1.4-.2-1.8-.7-.7-.7-.7-1.8 0-3 1.3-2.4 3.3-3.2 5.3-3.6.6-.2 1-.5 1.2-1 .5-1 .2-2.8-.9-5.1-1.2-3-2.4-5.5-3.4-5.9h-1c-.4.3-.7 1.1-.7 2.5 0 2.8-1 3.4-2 3.9-.4.2-1 .2-1.4 0-.8-.4-1.3-1.2-1.7-2.5-.4.7-.8 1.3-1 1.9-.7 1.3-1.3 2.4-2.5 2.7.1 1.3-.3 2.2-1 2.6-.7.3-1.5 0-2-.6a.3.3 0 1 1 .4-.3c.4.4.9.6 1.3.4.5-.2 1-1 .8-2.3a.3.3 0 0 1 .2-.3c1-.1 1.6-1.1 2.3-2.4.3-.8.8-1.6 1.4-2.4l.2-.1c.1 0 .2 0 .2.2.5 1.8 1.1 2.4 1.6 2.6.4.2.8.1 1 0 1-.4 1.6-1 1.7-3.4 0-1.6.3-2.5.9-2.9.4-.3 1-.2 1.4 0 1.3.3 2.2 2.4 3.8 6 .8 1.8 1.6 4.3.8 5.7-.3.6-.8 1-1.5 1.2-1.9.4-3.8 1.1-5 3.4-.5 1-.5 1.8 0 2.4.6.7 2 .7 3.7 0a9.4 9.4 0 0 0 4.9-4.2.3.3 0 1 1 .4.2s-1.2 2.7-5 4.4c-1 .4-1.9.6-2.6.6ZM177.4 63.5c-.9 0-1.7-.2-2.4-.5a.3.3 0 0 1 .2-.5c1.3.6 2.9.6 4.8 0a12.2 12.2 0 0 0 5.7-2.8l1-1.2h.3c.2 0 .2.2.1.3l-1 1.2-.4.4c-1.8 1.6-4 2.3-5.6 2.7-1 .2-1.8.4-2.7.4Z" fill="#292929"/>
    <path d="M177.6 63.3s-.2 0-.2-.2l-.5-1.3-.7-2-.8-2.1-.2-.6c-.2-.4-.4-.8-.4-1.2a.3.3 0 0 1 .5 0l.3 1 .3.6.8 2.2.7 2 .5 1.2a.3.3 0 0 1-.3.4ZM180.3 63c-.1 0-.2 0-.3-.2l-.4-1-.2-.4a23.1 23.1 0 0 0-.6-1.8l-.8-1.9a15.8 15.8 0 0 1-.8-2 .3.3 0 1 1 .5-.3l.4 1a24 24 0 0 1 1.2 3l.3 1a23.8 23.8 0 0 1 .5 1.3l.4.9a.3.3 0 0 1-.2.4ZM183.5 61.9s-.2 0-.2-.2l-.3-.8-.2-.4-.3-.9a27 27 0 0 0-.4-.8v-.1a151 151 0 0 0-1.7-4.1.3.3 0 0 1 .4-.2c.7 1.3 1.2 2.7 1.8 4v.2l.4.8.3.9.2.4.3.9a.3.3 0 0 1-.3.3ZM185.1 58.7s-.2 0-.2-.2l-.2-.5-.2-.4-.7-1.8-.6-1.4-.2-.3-.3-.9c0-.1 0-.3.2-.3s.3 0 .3.2c0 .3.2.5.3.8l.2.3.5 1.4.2.3.6 1.5.2.4c0 .2 0 .4.2.5a.3.3 0 0 1-.3.4ZM239.7 54.9a.3.3 0 0 1-.2-.3c0-.5-.2-1-.3-1.4l-.2-.6-.3-1.2-.6-1.9-.2-.8-.2-.8a.3.3 0 1 1 .5-.1 23.6 23.6 0 0 1 .4 1.5l.6 1.9c.2.4.2.9.3 1.3l.2.6.3 1.5c0 .1 0 .3-.2.3ZM242.3 55.4a.3.3 0 0 1-.2-.3l-.1-.4v-.2l-.3-1-.5-1.9-.3-1.1a31.7 31.7 0 0 0-.6-2.7.3.3 0 1 1 .5 0l.2 1 .2.5.2 1 .3 1.2a24 24 0 0 1 .8 2.9v.1l.1.6c0 .1-.1.3-.3.3ZM245.3 54.8c-.1 0-.2 0-.3-.2a8 8 0 0 1-.1-.5l-.2-.7c0-.4-.2-.8-.3-1.1l-.1-.6-.2-.7-1-3.6a.3.3 0 1 1 .6-.1l.9 3.6.2.7.1.5.3 1.2c0 .2 0 .4.2.6v.3l.1.2a.3.3 0 0 1-.2.4ZM248.1 53.6s-.2 0-.2-.2l-1-3.2v-.4l-.6-1.6-.2-.7-.3-1a.3.3 0 0 1 .5-.1l.3 1 .2.7.5 1.5.2.5.9 3.2a.3.3 0 0 1-.3.3Z" fill="#292929"/>
    <path d="M241.2 56.2h-1l-1.3-.4-1.4-.3a.3.3 0 1 1 0-.5c.6 0 1 .2 1.6.3l1.2.3c.5 0 1 .1 1.6 0h1.7c1-.2 2.2-.7 3.3-1.1l2.7-1.5 1.6-1 .8-.8c.1-.1.3-.1.4 0v.4l-.9.8-1.6 1c-1 .7-2 1.1-2.8 1.5-1.1.5-2.3 1-3.5 1.2H242l-.7.1ZM225.2 78l-.3-.1-.3-.7c0-.2-.1-.5-.3-.7l-.5-1.3-.3-.6a5 5 0 0 1-.6-1.4.3.3 0 1 1 .5 0c0 .4.3.7.5 1.2l.3.6c.3.4.5.9.6 1.3l.3.7.3.7a.3.3 0 0 1-.2.3ZM270 74.4h-.2l-1.3-1-.5-.5-1.5-1.1-2-1.3a.3.3 0 0 1-.1-.4c0-.2.3-.2.4-.1l2 1.3a11.1 11.1 0 0 1 2.1 1.6l1.2 1c.1 0 .2.2.1.3l-.2.2ZM283 108c-.2 0-.3 0-.3-.2l-3.4-9c0-.1 0-.3.2-.3l.3.1 3.4 9a.3.3 0 0 1-.3.4ZM250 122c-2.4 0-4.8 0-7.2-.3a.3.3 0 0 1-.2-.3 69.5 69.5 0 0 0 40.8-7.9c.1.2 0 .3 0 .4A68 68 0 0 1 250 122ZM283.2 130.6c-.9 0-1.7-.2-2.5-.6-3.9-1.6-7-6.7-8.1-10.8a.3.3 0 0 1 .5-.1c1.2 4 4.2 9 7.8 10.5 1.7.7 3.4.6 5-.3l.4.1v.4c-1 .5-2.1.8-3.1.8Z" fill="#292929"/>
    <path d="M287.8 137.2a72 72 0 0 0-6.7-21.8l.1-.4.4.1c0 .1 5.5 11.2 6.5 21.8 0 .1-.1.3-.3.3ZM161.6 38.7c-.5 0-1-.3-1.3-.7a4 4 0 0 1-.8-2c0-1.5.7-3 1.3-4 0-.2.2-.2.3-.1.2 0 .2.2.1.3A7 7 0 0 0 160 36c0 .6.4 1.4.7 1.8.3.4.8.5 1.2.4.1 0 .3 0 .3.2l-.1.3h-.5ZM165.4 33.9a.3.3 0 0 1-.3-.3 26.1 26.1 0 0 1 0-3.8.3.3 0 1 1 .5 0 76.9 76.9 0 0 1-.2 4ZM264.6 138c-1.4 0-2.8-.5-2.9-.5l-.2-.2-6.2-20.2.1-.3c.2 0 .3 0 .4.2l6.2 20c.5.2 2.4.7 3.8.3l-4.3-16c0-.2 0-.4.2-.4s.3 0 .3.2a932.9 932.9 0 0 0 4.2 16.6c-.5.2-1 .2-1.6.2Z" fill="#292929"/>
    <path d="M87.5 93a16 16 0 0 1-4 1.5c-.3 0-1.5-9.6-1.5-9.6 5.8-2.1 8.6-4.1 10.2-8.5 1.5-4.5-2.8-5.2-3-9.7-.2-3.6.5-15-12.7-13.4-13.3 1.8-24 20.6-18.6 26.2 5.4 5.7 10.3 6.5 10.2 8-.1 1.4-5.2 9.3-5.5 9.6-.3.4 3.7 8.2 7.7 9.9 4 1.6 26.5.8 17.2-14Z" fill="#FAD1D5"/>
    <path d="M28 196c-.6-8.4-.6-35.7 15.4-47.6 1.3-1 2.4-4 2.4-4 7.1 1.9 25.5 6.8 33.6 6.4-1 2.7-3.6 6.9-3.6 6.9l2.5 38.1-20.9.4-4.2-6.6.6 6.3H28Z" fill="#FAAD3A"/>
    <path d="M28.2 196c-.6-8.5.1-17.2 2.2-25.4a46.5 46.5 0 0 1 6.4-14.8c1.5-2.3 3.4-4.4 5.5-6.2 1-.7 1.8-1.3 2.4-2.3.5-.9 1-1.8 1.3-2.7v-.1l-.3.2a402 402 0 0 0 16.5 4c5.6 1.2 11.5 2.6 17.2 2.3l-.2-.3c-.9 2.4-2.2 4.6-3.6 6.7-.2.4 0 .8 0 1.2l.5 8.1 1.6 24 .4 5.1.2-.3-16 .4h-4.6c-.5 0 0 .3-.2 0l-4-6.4c-.2-.2-.6-.2-.5.1l.5 6.3.3-.2H28c-.4 0-.4.5 0 .5h25.8c.1 0 .3-.1.3-.3l-.6-6.3-.5.1 4 6.5c.3.4.7.3 1 .3h3.6l16.7-.4c.2 0 .3-.2.3-.3l-2.5-37.1v-.8l.1-.4c1.4-2.1 2.6-4.3 3.5-6.7 0-.1 0-.3-.3-.3-5.7.3-11.5-1.1-17-2.3-5.6-1.2-11.1-2.6-16.6-4l-.3.1a16 16 0 0 1-1 2.4c-.8 1.3-2 2-3 3-2 1.7-3.7 3.7-5.2 5.8a46 46 0 0 0-6.3 14.4 81.2 81.2 0 0 0-2.3 26c0 .4.5.4.5 0Z" fill="#FAAD3A"/>
    <path d="M58.2 154.4c-6-1-11.4-3.3-14-5.9a.3.3 0 1 1 .4-.3c2.5 2.4 7.8 4.7 13.6 5.7a.3.3 0 0 1 0 .5Z" fill="#292929"/>
    <path d="M33 196a.3.3 0 0 1-.3-.2c-.2-5.5-.7-33.6 14-45.8a.3.3 0 0 1 .3.4c-14.5 12-14 40-13.8 45.4 0 .1 0 .3-.2.3Z" fill="#292929"/>
    <path d="M83.6 94.3c4.3-1 6.1-2.5 9-2.8.9-3-2.3-8.4-4.6-9.3a18.3 18.3 0 0 1-6.1 2.7c.6 4.6 1.7 9.4 1.7 9.4Z" fill="#463363"/>
    <path d="M83.6 94.5c3-.7 5.9-2.4 9-2.7l.2-.2c.7-2.8-1-5.9-2.6-8-.3-.3-1.8-2-2.3-1.6-1.9 1.2-4 2.2-6.1 2.7-.2 0-.2.2-.2.3.5 3.1 1 6.2 1.7 9.3 0 .4.6.2.5 0l-1.7-9.4-.2.3a27.9 27.9 0 0 0 4.2-1.6c.3-.1 1.8-1.2 2-1.1 1.9.9 3.1 3.3 3.8 5.2.4 1 .6 2 .5 3 0 1-1.5.8-2.3 1-2.2.8-4.3 1.8-6.6 2.3-.3.1-.2.6.1.5Z" fill="#463363"/>
    <path d="M78.9 85.4c-2.8 0-5.6-.6-8-2a.3.3 0 0 1 .3-.4c3.1 1.7 7 2.3 10.5 1.7.2 0 .3 0 .4.2l-.3.3c-1 .2-1.9.2-3 .2Z" fill="#292929"/>
    <path d="M65.2 74.5c1.3 4 3.9 5.1 3.2-.9 11.3-6.8 11.7-16.1 10.2-19.4 7 1 11.7 4.2 10.6 12 7.4-1.9 6.9-14.4.5-16.7-.2-9.1-10-11.4-19.9-5.9-4.4 2.5-6 5.5-11.9 7.9-7 2.7-9.5 11.7-9.5 19.2 0 11.5 0 17.1-9 24.1s-17.5 15.9-12.3 27c3.2 6.6 10 6.2 10 6.2-1.9 9 3.7 14.4 9 14 0 0 1.6-18.7 3.5-27 2-8.2 5.8-11.6 12.2-14.8 6.4-3.3 8-4.4 7.4-10.7-.5-4.8-1.3-8.4-1.3-8.4-5.7 2.4-8.6-1-9.2-3.3-1-3.9 4.3-6.8 6.5-3.3Z" fill="#463363"/>
    <path d="M65 74.6c.3.9 2 5 3.4 3 .2-.4.3-1 .3-1.4V75c0-1 .1-1.2 1-1.8 2-1.2 3.7-2.7 5.2-4.4C78.1 65 81 58.9 78.8 54l-.3.4c2.9.4 5.8 1.2 8 3.1 2.5 2.2 2.8 5.6 2.4 8.7 0 .2.2.3.3.2 4-1.1 5.8-5.2 5.7-9.1-.1-2-.7-4-1.9-5.6a6.2 6.2 0 0 0-3-2.5c-.2 0-.2-1.2-.2-1.6-.8-4.9-5.2-7.3-9.8-7.3-6 0-11.1 3.3-15.6 7-1.2.9-2.5 1.8-3.8 2.5-1.5.9-3.2 1.4-4.6 2.3a14 14 0 0 0-5.1 5.7c-2.7 5.3-2.6 11.2-2.7 17-.1 5.1-.6 10.2-3.7 14.5-1.8 2.5-4.2 4.4-6.6 6.3a53.6 53.6 0 0 0-7.4 7c-2.2 2.6-4 5.5-4.9 8.9-.8 3.5-.2 7 1.3 10.3 1.7 3.8 6 6.6 10.3 6.4l-.3-.4c-.7 3.7-.5 7.6 1.8 10.8a8.7 8.7 0 0 0 7.4 3.6c.2 0 .3-.1.3-.3a229 229 0 0 1 3-25c1.1-5.5 3.3-10.5 8-14 2.3-1.6 5-2.8 7.5-4.2 1.6-.9 3.3-2 4.1-3.8 1-2.2.6-5 .3-7.4L68 81l-.3-.2c-3.3 1.3-7.2 1.1-8.7-2.5-1.4-3.6 3.5-7.1 5.9-3.6.2.2.6 0 .4-.3-2.2-3.3-7.6-1.1-7 2.8a6 6 0 0 0 2.5 4c2.1 1.5 4.8 1 7 .1l-.3-.1c.6 2.2 1 4.6 1.2 6.9.3 2.4.8 5.2-.6 7.4-1.3 2-4 3.2-6.2 4.2a32.1 32.1 0 0 0-6.6 4.3c-4 3.4-5.6 8.4-6.6 13.5a191.5 191.5 0 0 0-3 24.5c.2 0 .3-.2.3-.2a8.3 8.3 0 0 1-6.8-3.2c-2.4-3-2.6-7-1.9-10.5 0-.2 0-.4-.2-.3-4 .2-7.6-2.2-9.5-5.5-3.7-6.5-1.5-13.6 2.9-19a50 50 0 0 1 7.3-7c2.4-2 4.7-3.7 6.6-6.1 3-3.7 3.9-8.3 4.1-13 .3-5.7-.2-11.3 1.8-16.8 1-2.7 2.4-5 4.5-6.9 1.2-1 2.6-1.6 4-2.2 1.5-.6 2.9-1.4 4.2-2.3 2.1-1.5 4-3.4 6.2-4.8 2.8-1.7 6-2.9 9.3-3.2 2.6-.3 5.3.1 7.5 1.6 2.3 1.5 3.2 4.2 3.3 6.9 0 .1 0 .2.2.2 6.6 2.5 6.4 14.4-.5 16.3l.3.3c.4-3.1 0-6.3-2.1-8.7-2.2-2.3-5.6-3.2-8.7-3.6-.2 0-.4.1-.3.4 1.2 2.4.7 5.5-.2 8a22 22 0 0 1-9.8 11s-.2.1-.1.2c0 .6.5 3.9-.7 4-1 0-1.8-2.5-2-3.1-.2-.4-.7-.2-.5 0Z" fill="#463363"/>
    <path d="M77.7 70.3c-1.4.2-1.5 2.9-.2 2.8 1.3 0 1.2-3 .2-2.8Z" fill="#292929"/>
    <path d="M77.5 70.8a.3.3 0 0 1-.1-.4l1-.9a.3.3 0 0 1 .4.3l-1 1H77.4ZM87.1 67.2c-1.3.3-1.4 3 0 2.8 1.2-.1 1-3 0-2.8Z" fill="#292929"/>
    <path d="M87 67.8a.3.3 0 0 1-.2-.5c.5-.3.9-.6 1-.9a.3.3 0 0 1 .5.3l-1.1 1H87ZM84.5 76.8l-.1-.1a.3.3 0 0 1 0-.4l.4-.4c1.5-1.5 1.9-2 .4-4.2v-.1c-1.8-2.6-2-3.1-.4-6 0-.2.2-.2.3-.1.1 0 .2.2.1.3-1.4 2.7-1.3 3 .4 5.5v.1c1.8 2.6 1.1 3.3-.4 4.8l-.5.5h-.2ZM74 68.1c-1 1.7-.8 2.5.4 1.5 1.2-1 2.9-2.1 3.9-2.6 1-.4 0-1.6-1.5-1.4-.8.2-2 1.1-2.8 2.5Z" fill="#292929"/>
    <path d="M77.2 65.9h-.4c-.7.1-1.9 1-2.6 2.3-.5 1-.6 1.4-.6 1.6l.6-.4c1.3-1.1 3-2.2 4-2.6l.2-.3c0-.3-.5-.6-1.2-.6Zm-3.6 3.9v.2-.2Zm0 .5c-.2 0-.3 0-.4-.2-.3-.5.2-1.4.5-2.1.9-1.5 2.2-2.5 3-2.6h.5c1 0 1.6.5 1.7 1 0 .3-.1.7-.5.9a18 18 0 0 0-3.8 2.5c-.4.3-.7.5-1 .5ZM84.8 65.9c.9-1.7 2.5-3.4 3.3-3.2.7.2 1.1 1.3.6 1.6-.4.3-.8-.6-2.3.5-1.4.9-1.7 1.4-1.6 1Z" fill="#292929"/>
    <path d="M87.9 63c-.5 0-1.4.8-2.3 2l.6-.4c.6-.4 1-.6 1.5-.6h.6c.1.1.2.2.3.1 0 0 .1-.2 0-.4a1 1 0 0 0-.6-.8h-.1Zm-3.1 3.2h-.2v-.4c.9-1.8 2.5-3.6 3.5-3.4.6.2 1 .8 1 1.2.2.4 0 .7-.2 1H87.7c-.3 0-.7 0-1.2.4l-1.3 1-.4.2ZM82 80.1c-.8 0-1.5-.3-2.2-.9a7.5 7.5 0 0 1-1.6-2 .3.3 0 1 1 .4-.2 7 7 0 0 0 1.5 1.8c.8.7 1.5.9 2.3.7.3 0 .7-.2 1-.4.1-.1.3-.1.4 0v.3a2.9 2.9 0 0 1-1.9.7Z" fill="#292929"/>
    <path d="M84 78.3h-.4l-1.3-.1a21.2 21.2 0 0 1-4-1 .3.3 0 1 1 .3-.5l.3.2.5.1.7.2.4.1a21.6 21.6 0 0 0 2 .4h2.1v.5H84Z" fill="#292929"/>
    <path d="m82.8 69.5 1.2-1c.6-.2 1 .1 1.4.4.3.1.6-.3.3-.5-.6-.3-1.1-.6-1.8-.3a3 3 0 0 0-1.5 1.2c-.2.3.3.5.4.2Z" fill="#5569AF"/>
    <path d="M80.5 64c-6.4-4-10.8 7.3-5.6 11 2.6 2 5.9.4 7.2-2.3 1.3-2.8 1-6.8-1.6-8.7-.3-.2-.5.2-.3.4 2.3 1.7 2.5 5 1.6 7.5-1 2.8-4.3 4.7-6.9 2.5-4.2-3.5-.4-13.6 5.3-10 .3.2.6-.2.3-.4Z" fill="#5569AF"/>
    <path d="m68.5 74.5 5-1.5c.4 0 .2-.6-.1-.5l-5 1.5c-.3.1-.2.6.1.5ZM92.6 67.8c.3-2.1.3-5.8-2-7-1-.6-2.2 0-3 .6-1.2 1-1.8 3-2 4.6-.4 2.1-.7 6.6 2.4 7 2.8.3 4.1-2.9 4.6-5.2 0-.3-.5-.4-.5 0-.4 1.8-1.3 4.4-3.5 4.7-2.9.3-2.8-3.8-2.6-5.6.1-2 1.6-7.2 4.6-5.6 1.8 1 1.7 4.6 1.5 6.4 0 .3.4.5.5.1Z" fill="#5569AF"/>
    <path d="M91.6 194.1c.6-.9-.4-2.4-1-3-1.4-1.5-3-3-6-3-1.1-.1-3.5.3-4.6.1-1.8-.4-2.5-12.6-2.5-12.6l-14.3 2s3.9 15.7 5 16.8c1.2 1.3 2.7 1.8 4.3 1.4a47 47 0 0 1 5.9-1c1.8-.2 3.2 0 4.9.5.7.3.8.8 2.1.4.6-.2 1.9.5 2.4.3 0 0 1-.5 1-.7.2-.2 1.8.5 2.8-1.2Z" fill="#FAD1D5"/>
    <path d="m46.3 141-.5 3.4s3.6 2.8 10.4 3.6c1.3 6.5 7 29.6 7 29.6 4.9 1.2 12.3 0 14.6-1.6a146 146 0 0 0-3.6-25.5c3.3.7 5.2.3 5.2.3l5.7-16.2c1-2.7 2-3.9 4.3-4.8 2.3-1 10-4.4 8.4-16.8L110 115l-.2-20.6s-12.4-6.2-23-1c3.2 3 2.2 8.5-3.8 11.4-6 2.8-14 .3-18.8-5.4a20.5 20.5 0 0 0-14.7 16c-2 10-3.2 25.6-3.2 25.6Z" fill="#5569AF"/>
    <path d="m46 140.9-.5 3.4.1.3c.9.7 1.9 1.1 2.8 1.6l3.1 1.1 4.4.9 2.5 10.7a2365.2 2365.2 0 0 0 4.7 19c4.2.9 9 .5 13-.9.6-.2 1.2-.4 1.8-.8.3-.2 0-1.3 0-1.6 0-1.9-.2-3.7-.4-5.5a201 201 0 0 0-2.5-16.5c-.2-.8-.3-1.6-.6-2.3l-.3.4c1.7.4 3.7.7 5.4.3a308.8 308.8 0 0 1 2.9-8l2.7-7.5c.9-2.5 1.8-4.4 4.4-5.5 2.3-1 4.3-2.3 5.8-4.2 2.9-3.6 3.3-8.4 2.8-12.8l-.3.3 12 1.8c.3 0 .4 0 .4-.2l-.2-20.6-.1-.3c-7-3.4-16.1-4.3-23.3-1v.5a5.6 5.6 0 0 1 1 6.6c-1.2 2.7-4.2 4.4-6.9 5.1-6 1.6-12.5-1.6-16.3-6.1 0 0-.1-.1-.2 0-3.7 1-7 3-9.7 5.8a23.7 23.7 0 0 0-5.7 13c-1.3 7.7-2.1 15.4-2.7 23 0 .4.5.4.5 0a346.6 346.6 0 0 1 2.2-20c.5-3 .9-6 2-9a20.3 20.3 0 0 1 12.8-12.2c.8-.2 1 .4 1.5.9a18.7 18.7 0 0 0 11.6 5.5c3.8.3 8.2-1.3 10.6-4.4 2-2.7 2.1-6.2-.4-8.6v.4a25.9 25.9 0 0 1 18.6-.6c1.4.4 2.7 1 4 1.5v1.7l.2 18.8.3-.3c-4-.6-8-1.3-12.1-1.8-.1 0-.3 0-.3.2.5 4.5 0 9.2-3 12.8-1.6 2-3.7 3-6 4a7 7 0 0 0-3.4 4c-.9 2-1.6 4.2-2.3 6.2l-3.1 9-.5 1.5-.7.1c-1.5.1-3 0-4.4-.4-.2 0-.4.2-.3.4.6 1.1.7 2.6 1 3.8a172.8 172.8 0 0 1 2.6 20.7c0 .7 0 .8-.6 1a22 22 0 0 1-11.2 1.6l-2.3-.2-.1-.6-2.5-10.3c-1.5-6.2-3.1-12.4-4.4-18.7l-.2-.2a24.3 24.3 0 0 1-10.2-3.4c-.2-.2 0 0 0 .2v-.5l.6-3c0-.3-.5-.5-.5-.1Z" fill="#5569AF"/>
    <path d="M56.2 148.2c-.2 0-.3 0-.3-.2-1.6-7.9-3.3-15.5-4.2-18.4a.3.3 0 1 1 .5-.2c.9 3 2.6 10.6 4.2 18.5a.3.3 0 0 1-.2.3ZM74.4 151.2s-.2 0-.2-.2c-.1-.7-.5-1.5-1-2.5l-1.7-4.6c-.7-2.2-.8-7.3-1-11.8 0-2.7 0-5.3-.3-6.8 0-.2.1-.3.3-.3.1 0 .2 0 .3.2l.3 7c.1 4.4.3 9.4.9 11.6l1.7 4.5c.5 1 .9 1.9 1 2.6a.3.3 0 0 1-.3.3ZM98 113.7a.3.3 0 0 1-.3-.3l-.6-4.7a.3.3 0 0 1 .5 0l.6 4.7a.3.3 0 0 1-.3.3ZM53.2 190.3a.3.3 0 0 1-.3-.3l-.3-6.6s0-.2.2-.2.3 0 .3.2l.3 6.6c0 .2 0 .3-.2.3Z" fill="#292929"/>
    <path d="M53 186a.3.3 0 0 1 0-.5l4.3-1c.1 0 .3.1.3.3 0 .1 0 .3-.2.3l-4.4 1ZM85.6 195.8a.3.3 0 0 1-.1-.5v-.1c.1-.2 0-.8-.3-1-.8-1.2-2.4-2.1-3.9-2.4h-2a17 17 0 0 1-1.4.3l-.2-.2c0-.2 0-.3.2-.3a19.9 19.9 0 0 0 1.4-.3h2.1c1.6.3 3.3 1.3 4.2 2.5.1.1.7 1 .5 1.6l-.5.4Z" fill="#292929"/>
    <path d="M88.4 195.8a.3.3 0 0 1-.2-.5c.4-.2.6-.3.6-.6v-1.1c-.3-.8-1-1.6-1.6-2-.7-.7-1.5-1-2.3-1.4-.8-.3-1.6-.3-2.4-.2l-1.1.1-1.1.2c-.2 0-.3-.1-.3-.3l.2-.2 1.1-.2 1.1-.1c1-.2 1.8-.1 2.7.2.8.4 1.7.8 2.5 1.4.6.6 1.4 1.4 1.7 2.3v1.4c0 .5-.5.8-.8 1h-.1Z" fill="#292929"/>
    <path d="m132 73.4-1.2-5.2s3.3-8.8 5.1-9c1.9-.4 4-1.5 3.3-4.8-.7-3.3-2.3-2.5-2.3-2.5-1.6-2.8-3-2.6-4-2.1-2.6-3.5-8.2-4-11.3 1.7-3 5.7-2 16.6.1 29.3 3.3-2.2 10.4-7.4 10.4-7.4Z" fill="#FAD1D5"/>
    <path d="M77.7 108.9c-3.5 0-9-.9-14.2-5.5a.3.3 0 1 1 .4-.4c5.7 5.1 12 5.5 15.1 5.3 3.7-.2 7-1.5 8.6-3.2 1.8-2.2 2.5-5.3 2.6-7.3 0-.2.2-.3.3-.3.1 0 .2.1.2.3a13 13 0 0 1-2.7 7.6c-1.6 1.8-5 3.2-9 3.5h-1.3Z" fill="#292929"/>
    <path d="M124.5 65.7c-1.8-.7-2.1-2.3-.6-3.6l8.3-6.9c1.6-1.3 3-.7 3.4 1.3l1.9 10.6c.3 2-1 3-2.8 2.3l-10.2-3.7Z" fill="#65B6DE"/>
    <path d="M133 55.4c.2 1.8 1.2 2.1 1.9 1.7-.3 2 1.4 2.3 2 1.9.4-.5-.2-6-3.6-5.6-.5 1.3-.2 2-.2 2Z" fill="#FAD1D5"/>
    <path d="M129.7 47.4c-4.3-1.2-8.4 2.2-9.7 8.8-.6 3-.4 7 0 10.9.7 0 1.4.2 2 .3l.4-5c1.2.3 6.6 1 7.3-2 .8-2.9-2.7-3.8-5.8-2.7.3-1.5 1.1-4.2 3.1-4.9 2-.7 3.2 4.4 5.5 3.2 2.3-1.3 1.6-7.4-2.8-8.6Z" fill="#FAD1D5"/>
    <path d="M125.3 63a12 12 0 0 1-3-.4.3.3 0 1 1 .1-.5c1 .3 4.2.7 6-.3.6-.3 1-.8 1.1-1.4.2-.9 0-1.6-.5-2-1-1-3-1.1-5-.4h-.3v-.3c.6-2.9 1.7-4.6 3.2-5.1 1.1-.4 2 .6 2.8 1.6 1 1.3 1.8 2 2.7 1.5.5-.3.9-.8 1-1.5.4-1.4 0-3.2-.9-4.5a.3.3 0 0 1 .5-.2c1 1.4 1.3 3.3 1 4.8-.3.9-.7 1.5-1.3 1.9-1.4.8-2.5-.5-3.4-1.6-.7-1-1.4-1.8-2.2-1.6-1.3.5-2.3 2-2.9 4.4 2-.7 4.1-.4 5.2.5.5.5 1 1.3.6 2.6-.2.8-.7 1.4-1.4 1.8a7 7 0 0 1-3.3.6Z" fill="#292929"/>
    <path d="M134.1 57.5h-.2c-.4 0-1-.4-1.1-1.7a.3.3 0 1 1 .5 0c0 .5.2 1.1.7 1.2.7.1 2-.9 2.7-2.4.3-.8.2-1.8-.3-2.9a.3.3 0 0 1 .5-.2 4 4 0 0 1 .3 3.3c-.7 1.6-2 2.7-3 2.7Z" fill="#292929"/>
    <path d="M136.2 59.4c-.4 0-.7-.2-1-.4-.5-.4-.6-1.1-.5-2 0-.2.2-.3.3-.2.2 0 .3.1.2.3 0 .7 0 1.2.4 1.5.2.3.7.3 1.1.1a.3.3 0 1 1 .2.5 2 2 0 0 1-.7.2Z" fill="#292929"/>
    <path d="m206.8 82.5-38.6-22.3a15.5 15.5 0 0 0-14 0l-38.7 22.3c-3.8 2.2-7 7.7-7 12.1v44.7c0 4.4 3.2 9.9 7 12l38.7 22.4a15.5 15.5 0 0 0 14 0l38.6-22.3c3.9-2.2 7-7.7 7-12.2V94.7c0-4.4-3.1-9.9-7-12.1Z" fill="#D8EFFB"/>
    <path d="M188.2 108.3a26.4 26.4 0 1 0-37.7 23.8c3 1.8 3 4 2.8 8.1-.1 3.4-.3 6.2 1.2 7.6 1.3 1.4 4 2.4 7.3 2.4s6-1 7.3-2.4c1.6-1.4 1.4-4.2 1.3-7.6-.1-4-.1-6.3 2.7-8 9-4.3 15.1-13.4 15.1-24Z" fill="#FAAD3A"/>
    <path d="M188.5 108.3A27 27 0 0 0 170.3 83c-10.9-3.7-23 .4-29.9 9.5a26.9 26.9 0 0 0 7.1 38.2c1.3.9 2.7 1.4 3.9 2.4 1.1 1 1.5 2.4 1.6 3.8.3 3-.5 6.2.3 9.2.6 2.5 3.2 3.5 5.4 4 3.7.8 10.3.4 11.7-4 1.4-4.3-2-11.4 3.2-14 9-4.3 14.8-13.8 14.9-23.8 0-.3-.5-.3-.5 0a26.5 26.5 0 0 1-14.7 23.4c-2 1-3 3-3.2 5.2-.2 3.2.9 7-.5 9.9-1.5 3.1-6.7 3.3-9.6 3a9.5 9.5 0 0 1-4.9-1.8c-1.3-1-1.6-2.7-1.6-4.4 0-2.8.6-6-.3-8.8-.8-2.5-3.4-3.2-5.4-4.5a26.2 26.2 0 0 1-12-25 26.3 26.3 0 0 1 24.2-23 26.3 26.3 0 0 1 28 26c0 .3.5.3.5 0Z" fill="#FAAD3A"/>
    <path d="M170.4 136.5a39.5 39.5 0 0 1-17.1 0v3.7c-.1 3.4-.3 6.2 1.2 7.6 1.3 1.4 4 2.4 7.3 2.4s6-1 7.3-2.4c1.6-1.4 1.4-4.2 1.3-7.6v-3.7Z" fill="#463363"/>
    <path d="M170.3 136.3a40.2 40.2 0 0 1-17 0c-.1 0-.3 0-.3.2.3 3.4-.9 7.4.6 10.5 1.3 2.8 5.6 3.4 8.2 3.4 2.9 0 6.7-.7 8.3-3.4.6-1.2.6-2.8.6-4.2 0-2-.2-4.2 0-6.3 0-.3-.5-.3-.5 0-.3 3.1.5 6.4-.3 9.5-.8 3.2-5.3 3.9-8 3.9-3 0-7.1-.7-8.1-3.9-.5-1.4-.3-3-.3-4.4 0-1.7.2-3.4 0-5 0 0-.2 0-.3.2a40.9 40.9 0 0 0 17.3 0c.3-.1.2-.6-.2-.5Z" fill="#463363"/>
    <path d="M161.8 101.9h-.6c-1.8.3-3.7 2-3.6 5.5a15 15 0 0 0 4.4 9.8l.4-.5c3.1-4 3.9-9.6 3.2-12a3.8 3.8 0 0 0-3.8-2.8Zm5.6 18.1c1.9.3 3.9-.1 5.8-1.2 2.9-1.7 4.5-3.7 4.5-5.4 0-1-.5-1.7-1.3-2.2-1-.5-2.2-.4-3.3.3-1.2.7-3.9 3-5.7 8.5Zm-19.6-6.8c-.6 0-1.1.2-1.5.6-.4.5-.5 1.4 0 2.5.8 2 3.4 4.3 8 4.4h1.2c-1.4-3.6-3.4-6.3-6-7.1-.6-.2-1.2-.4-1.7-.4Zm11 25a.5.5 0 0 1-.6-.4 47 47 0 0 0-2.3-16.1h-1.7c-5-.1-8-2.8-9-5-.5-1.4-.4-2.8.4-3.6.5-.6 1.7-1.4 4.2-.5 3.1 1 5.3 4 6.8 7.9 2-.4 3.5-1.5 4.7-2.6a16.1 16.1 0 0 1-4.7-10.4c-.2-4.3 2.2-6.2 4.5-6.6a5 5 0 0 1 5.5 3.5 17.2 17.2 0 0 1-3.8 13.5 10.4 10.4 0 0 0 3.5 1.9c1.9-5.7 4.7-8.2 6.2-9.2 1.4-.9 3-1 4.4-.3 1.1.6 1.8 1.8 1.8 3 0 1.3-.6 3.8-5 6.4a9.9 9.9 0 0 1-6.7 1.3 50.7 50.7 0 0 0-1.7 15.9c0 .3-.2.5-.5.5a.5.5 0 0 1-.5-.5c-.2-7 .5-12.2 1.7-16.1a10 10 0 0 1-4-2.2 10.6 10.6 0 0 1-5 2.9c1.8 5.5 2.4 12.3 2.3 16.3 0 .3-.3.5-.5.5Z" fill="#463363"/>
    <path d="M161.6 140.9c-2.3 0-4.6-.3-7-1a.3.3 0 0 1 .2-.4 33 33 0 0 0 13.4.3c.2 0 .3.1.3.3 0 .1 0 .2-.2.3-2.1.2-4.4.5-6.7.5Z" fill="#292929"/>
    <path d="M121.9 133c-1.6 1.2-3.1.6-3.4-1.4L117 121c-.3-2 1-3 2.8-2.2l10 4c1.9.7 2 2.3.5 3.6L122 133Z" fill="#ED4477"/>
    <path d="M158.6 159.8a7 7 0 0 0-1 .4c-1 .5-2 1.4-2 3-.1.9.2 1.5.7 1.7.7.3 1.7.1 2.5-.6.4-.3 1.3-1.3.8-2.8-.2-.6-.6-1.2-1-1.7Zm-1.6 5.8c-.3 0-.6 0-.9-.2-.4-.2-1.1-.8-1.1-2.3 0-1.3.9-2.6 2.4-3.3l.8-.4c-1-.9-2.4-1.5-3.8-1.6-1 0-3.1.1-4.2 2.3a.3.3 0 1 1-.5-.2 4.6 4.6 0 0 1 4.8-2.6 7 7 0 0 1 4.2 2c2.6-.9 6-.5 8.1.9a.3.3 0 0 1-.2.4c-2-1.3-5-1.6-7.5-1 .5.5.8 1.1 1 1.7.4 1.3 0 2.5-1 3.4-.6.6-1.4.9-2 .9Z" fill="#5569AF"/>
    <path d="M198.6 138.6a6.3 6.3 0 1 1-12.5 0 6.3 6.3 0 0 1 12.5 0Z" fill="#65B6DE"/>
    <path d="M199 92.4a3 3 0 0 1-4.2.6l-4.7-3.6a3 3 0 0 1 3.7-4.8l4.7 3.5a3 3 0 0 1 .6 4.3ZM133.8 141.8a3 3 0 0 1 3.8 2l1.8 5.6a3 3 0 0 1-5.8 1.9l-1.8-5.7a3 3 0 0 1 2-3.8Z" fill="#F8C1C6"/>
    <path d="M125.5 90.2a3.9 3.9 0 1 0 0 7.7 3.9 3.9 0 0 0 0-7.7Zm0 8.2a4.4 4.4 0 1 1 0-8.7 4.4 4.4 0 0 1 0 8.7Z" fill="#5569AF"/>
    <path d="M153.6 68h-.3a2 2 0 0 0-1.4 1.3c-.4 1-.2 2.5.4 3.4.5 1 1.3 1.6 2.1 2 1.4-1.6 2.5-3.6 1.7-5.2-.4-1-1.5-1.5-2.5-1.5Zm-4.9 10.3c-.8 0-1.8-.1-2.8-.4a.3.3 0 0 1 .1-.5c2.7.7 4.6.5 6.4-1l1.7-1.3a5.3 5.3 0 0 1-2.3-2 4.7 4.7 0 0 1-.3-4c.3-.8.9-1.4 1.7-1.6 1.3-.1 2.9.5 3.4 1.8 1 2-.3 4-1.6 5.5.6.2 1.2.3 1.9.2a5.3 5.3 0 0 0 4.4-4c0-.1.2-.2.3-.1.1 0 .2.1.2.3-.6 2.3-2.5 4-4.8 4.3-.9.1-1.7 0-2.4-.2a16 16 0 0 1-1.8 1.6 6.4 6.4 0 0 1-4 1.4Z" fill="#FAAD3A"/>
    <path d="M223.2 132a43 43 0 0 0-2-8c-.7-1.4-.3-2.3-2.5-3.6-2.2-1.3-5-3.6-5.5-3.9-.5-.2-1.3-3.3-4.2-.5-3 2.7-6.2 3-7 .3-1.6-.3-2.4-1.5-2-2.4.4-.8 4-3.2 4-3.2-1.8 1-4.9 1.1-5.3-.2-.4-1.3 1-2.3 3.5-3 2.4-.7 12.3-5.1 15-3.4 2.6 1.6 6.9 5.2 9.9 7.2s4.1 5.3 5.5 9.1a116 116 0 0 1 2.6 8s-3.7 6.6-12 3.5Z" fill="#FAD1D5"/>
    <path d="M201.7 116.4a2 2 0 0 1-1.7-1 .3.3 0 0 1 .4-.3c1 1.4 2.6.6 4.3-.4l.3-.2.4-.2 1.2-.7h.3v.3a5 5 0 0 1-1.3.8l-.3.2-.3.2c-1 .5-2.2 1.3-3.3 1.3ZM200.6 111.7c-.3 0-.6 0-.9-.2a.3.3 0 1 1 .2-.5c.7.2 1.3.1 2 0l.5-.1a11 11 0 0 0 1.7-.6c.2 0 .3 0 .4-.2l.4-.1.3-.2c.2-.1.4-.3.7-.3a.3.3 0 1 1 .1.5l-.5.2a4.4 4.4 0 0 1-.8.4l-.4.2a11.3 11.3 0 0 1-2.3.7l-1.4.2Z" fill="#292929"/>
    <path d="M219.7 105.1c1 .7 1.3 2.1.6 3.1l-6 9c-.6 1-2 1.3-3 .7l-9-6c-1-.7-1.4-2-.7-3.1l6-9c.7-1 2-1.3 3-.7l9.1 6Z" fill="#5569AF"/>
    <path d="M267.8 79.2c-13.4.7-11 11.7-10 15.3 1 3.3-3.6 6-1.2 10.1 2.3 4.1 6.4 6.3 12.7 6.6 0 0-.3 7-.6 9.4l13.3-.9c-.6-4-1.8-12.6-.1-15.7.6-1.3 4.7 4 9-2.5 4.2-6.5-9.7-23-23.1-22.3Z" fill="#FAD1D5"/>
    <path d="M269.3 111.4a.3.3 0 0 1-.3-.2c0-.2.1-.3.3-.3 3.2-.2 6.6-1.5 9.1-3.5a.3.3 0 0 1 .3.4c-2.6 2-6 3.4-9.4 3.6ZM269.7 96c1.3 0 2 2.6.7 2.7-1.3.2-1.8-2.6-.7-2.7Z" fill="#292929"/>
    <path d="M270 96.6h-.2v-.1c-.6-.2-1-.4-1.3-.8v-.3c.1-.1.3-.1.4 0l1 .6h.1a.3.3 0 0 1 0 .6ZM259.9 94.7c1.3 0 1.8 2.7.5 2.8-1.3 0-1.6-2.7-.5-2.8Z" fill="#292929"/>
    <path d="m260 95.3-.2-.1c-.5-.3-1-.5-1.2-.8a.3.3 0 1 1 .4-.3l1 .6h.2a.3.3 0 0 1-.2.6ZM264 102c-.8 0-1.6-.2-2.4-.8-.9-.8-.3-1.8 0-2.5a7 7 0 0 0 1-3.3c0-1-.3-1.4-.9-2.1l-.2-.3c-.1-.1-.1-.3 0-.4h.4l.2.4c.6.7 1 1.2 1 2.4.1 1.3-.5 2.5-1 3.6-.4.7-.7 1.3-.1 1.8.7.7 1.6.6 2.6.6h.5a.3.3 0 0 1 0 .5h-1ZM264.1 104c.5 1 1 1.4 1.5 1.4.8 0 1.7-1.4 2-2.7-1 .7-2.6 1.2-3.5 1.3Zm1.5 2c-.8 0-1.5-.8-2.1-2.1v-.3h.2c.9 0 3.4-.9 4.2-1.8h.3l.2.2c-.3 1.7-1.4 4-2.8 4Z" fill="#292929"/>
    <path d="M267.7 92.7c-.4-.9.5-1.9 2.1-1.2 1.3.5 2.4 1.7 3 2.7.6 1.1 0 .5-.8 0a4.7 4.7 0 0 0-3.3-1.2c-.6 0-1 0-1-.3Z" fill="#ED4477"/>
    <path d="M268.8 92.7a5 5 0 0 1 3.4 1.2l.2.2c-.5-1-1.6-2-2.7-2.4-.7-.3-1.4-.2-1.7.2-.1.2-.2.5 0 .7 0 .1 0 .2.3.2h.5Zm4.2 2.4c-.2 0-.4-.2-1-.6l-.1-.2c-.7-.5-1.5-1-3-1H268.2c-.3 0-.8 0-.9-.5-.1-.4 0-.8.2-1.2.4-.6 1.3-.8 2.3-.4 1.3.6 2.5 1.7 3.1 3 .3.4.3.6.2.7l-.2.2Z" fill="#ED4477"/>
    <path d="M257 89.7c1.2-2 5.8-7 12.2-9.7 0 6 3.3 15.5 10.7 15.7-.2 2.6-.5 4.4.1 4.6.6.3 2.7-1 3-4 1.8-2 6.1-1.4 7 1.7 1 3-1.9 7.7-7.3 5.5-.8-.1-2 1.5-1.7 5 4.4.4 9.2-1.1 11.8-5.6a14 14 0 0 0-.6-14.5c-2.7-4.4-3.2-6.2-2.7-8.5 8 1.7 13-4 11.9-11-1.1-7-8-11.4-15.6-9.5-7.6 2-9.8 11-2 16.2-1.1 1.3-4.4 0-8.6-1.9-4.2-2-16.7-4.8-22.8 4.9-6.4 9.8 3 16.3 5.4 15.6-.9-2.6-.8-4.5-.8-4.5Z" fill="#ED4477"/>
    <path d="m295.3 179 1.2-13.7 3.5 13.3-4.7.4Zm23.5-13c-5-11.3-6.6-18-11.3-29.8-4.7-11.7-13.4-11.7-18.6-12.3-5.2-.6-6.8-3-7.1-6.8-10.7 4-12.8-1-13-.7-.9 5.7-2.7 5.7-8.8 4.8-6.2-.9-14.1 9.2-20.4 17.3 0 0-3.9-10.8-4.9-12.4-5 4.4-9.2 3.9-12.3 2.9l2.2 8c-6.2 2.2 1.2 18.8 4.5 25.2 6 11.7 16.5 8.2 24.5-4 2 2 4.1 4 4.2 5 0 1 0 6-.4 9-.5 2.8-3 11-3 11.4 0 .3 3.1 7.8 3.1 7.8s30.3.6 30.2 4.9c4.6-.7 20 .3 29.1-4.2 9.2-4.4 6.9-14.7 2-26Z" fill="#65B6DE"/>
    <path d="M319 166c-2.7-6.4-5-12.8-7.3-19.3-1.2-3.4-2.4-6.7-3.8-10a23.3 23.3 0 0 0-4.5-7.6c-3-3-6.9-4.5-11-5-2-.4-4.2-.4-6.2-1-2.8-1-4-3.3-4.2-6 0-.1-.1-.3-.3-.2-3.6 1.3-8.9 2.8-12.1-.2-.2-.2-.7-.9-1-.4-.3.3-.3 1.2-.4 1.6 0 .5-.3 1-.5 1.6a3 3 0 0 1-2 1.7c-2.2.6-4.6-.3-6.8-.3s-4.3 1.4-6 2.6c-5.4 4-9.5 9.7-13.5 14.8l.4.2-2-5.8c-1-2.2-1.7-4.7-2.8-6.8-.1-.1-.3-.1-.4 0-3.6 3-7.6 4.3-12 2.8-.3 0-.5.2-.4.4.7 2.6 1.5 5.3 2.1 8l.2-.3c-3.4 1.3-2.7 6-2 8.8 1 5 3 9.6 5.1 14.1 2 4.3 4.6 9 9.8 9.8 5.2.9 10-3.2 13.2-6.8a40 40 0 0 0 3.2-4.3h-.4l2.5 2.6c.7.7 1.6 1.5 1.7 2.5 0 1.7 0 3.5-.2 5.3-.2 3.6-1.1 7-2 10.5l-1.1 3.9c-.2.6.1 1 .3 1.6l2.7 6.6a218.8 218.8 0 0 1 24.9 2.3c1.1.3 5.2 1 5.2 2.6 0 .2.2.3.3.2 4.3-.6 8.7-.3 13-.6 5.3-.4 10.8-1.1 15.7-3.3 11.1-4.8 6.2-18.3 2.6-26.7-.1-.3-.6 0-.5.3 2.2 5 4.4 10.4 4.3 16 0 2.2-.6 4.4-1.8 6.3-1.5 2.2-4 3.4-6.4 4.3-5 1.9-10.4 2.4-15.6 2.7-3.8.2-7.7 0-11.4.5l.3.3c0-2-3.6-2.6-5-2.9a81 81 0 0 0-11.7-1.6 232.3 232.3 0 0 0-13.5-.7 873.9 873.9 0 0 1-2.4-6c-.2-.6-.6-1.3-.5-1.8.6-2.7 1.4-5.3 2.1-8 .8-3 1.1-6.1 1.2-9.3 0-1 .3-2.4-.2-3.2-.9-1.9-2.7-3.3-4.1-4.7-.1-.2-.3-.1-.4 0-3.1 4.7-7.5 9.8-13.3 10.9-5.6 1-9.2-3.7-11.4-8.2-2-4.1-4-8.5-5.2-13-.8-2.7-2.6-9 1.1-10.5.2 0 .3-.1.2-.3-.6-2.7-1.4-5.4-2.1-8l-.3.2c4.7 1.5 8.8.2 12.5-3h-.4c1.2 2.1 2 4.6 2.8 7l2 5.4c0 .2.3.3.4.1 4.1-5.2 8.3-11 13.7-15a9.7 9.7 0 0 1 7.2-2.1c1.8.2 4 .6 5.7 0 1.5-.6 2-2.2 2.5-3.6 0-.5.4-1 0-1.4l.2.2.8.8c3.4 2.5 8.5 1 12-.2l-.3-.3c.2 2 .7 3.8 2.2 5.2 1.7 1.5 4 1.8 6.2 2a21 21 0 0 1 12 4c2.5 2.2 4.1 5 5.4 8l4 10.6c2.2 6.5 4.5 13 7.2 19.3.2.3.6 0 .5-.3Z" fill="#65B6DE"/>
    <path d="m295.5 179 1.3-13.7h-.5l3.4 13.3.3-.3-4.7.4c-.4 0-.4.5 0 .5l4.7-.4c.2 0 .3-.1.2-.3l-3.4-13.3c-.1-.3-.5-.2-.5 0L295 179c0 .3.5.3.5 0Z" fill="#65B6DE"/>
    <path d="M237.2 186c2.2-2 7.3-5.5 8.5-3.7 1.7-1.3 3.3-1 3.3-1 1.4-1.6 3.2-2 4.9 0 1.7 2 7 6.4 7.8 7.3.9.9 7.6.7 22.7-2.6 3 1.2 3.2 10 3.2 10-5.6.3-46.9.1-46.9.1l-3.5-10Z" fill="#FAD1D5"/>
    <path d="M254.7 191.4h-.2l-.1-.1v-.1l-.6-1.1a31 31 0 0 1-.7-1.7l-1-1.6-.6-1.2-1.2 1.2-1.6 1.9h-.1c-.7 1-1.9 2.6-3.4 1.7-.4-.2-.7-.6-.8-1-.3-1 .3-2 .5-2.4l1.2-1.7a36.6 36.6 0 0 0 1.7-2.6c.3-.6.7-1.2 1.2-1.7 0-.1.3-.1.4 0v.3c-.5.5-.8 1-1.2 1.7l-.5.9-1.2 1.7-1.1 1.7c-.2.3-.7 1.2-.5 2 0 .3.3.5.6.6 1 .6 1.8-.3 2.6-1.4l.1-.1 1.7-2 1.4-1.4.2-.1h.2l1 1.7.8 1.6.4.8a35.4 35.4 0 0 0 .4.9c.2.4.3.8.6 1.1v.4h-.2Z" fill="#292929"/>
    <path d="M241.4 189.5a2 2 0 0 1-1.7-.8c-1-1.3.5-2.7 1-3.1a25 25 0 0 1 5.1-3.5.3.3 0 1 1 .3.4c-1.8 1-3.6 2-5.1 3.5-1 1-1.3 1.8-.9 2.4.6.7 1.7.7 2.4.3.8-.3 1.5-1 2.2-1.5l.3.4c-.7.6-1.5 1.2-2.3 1.6a3 3 0 0 1-1.3.3Z" fill="#292929"/>
    <path d="M238.2 189.4a.3.3 0 0 1 0-.5 3 3 0 0 0 1.4-.6.3.3 0 0 1 .4.3 3.5 3.5 0 0 1-1.8.8ZM254.6 159.7h-.2c-.9-.9-2-2.6-2.3-3.8-1.5-4.7-.3-9.7 1.2-14.4.1-.2-.3-.7-.6-1l-.2-.3-.8-1.4v-.3h.4l.8 1.4.2.3c.4.4 1 1 .7 1.5-1.5 4.6-2.7 9.4-1.2 14 .3 1 1.3 2.7 2.2 3.6a.3.3 0 0 1-.2.4ZM226.5 137.6a5 5 0 0 1-2.5-.5.3.3 0 0 1 .3-.4c1.5 1 7 .4 11.4-2.6.1-.1.3 0 .4 0l-.1.4c-3.3 2.2-7 3.1-9.5 3.1ZM241.7 145.2c-.1 0-.2 0-.3-.2-.4-2.5-.8-3.7-2.2-7.2l.1-.3.4.1c1.4 3.5 1.8 4.8 2.2 7.3a.3.3 0 0 1-.2.3ZM300 178.6l-.2-.2-1.3-4.7-3-10.6c-1.6-4.6-2.9-9.4-4.3-14.7 0-.1 0-.2.2-.3A210.9 210.9 0 0 0 296 163c1.2 3.3 2.2 7.2 3.1 10.6l1.3 4.8a.3.3 0 0 1-.2.3Z" fill="#292929"/>
    <path d="m284.2 186-.2-.1v-.3l.2-.2h.1l.4-.1.6-.2c.4 0 .8-.2 1.1-.3h.3l.7-.2h.2c-.3-.7-.6-1.3-.4-2 .2-1.3 1.3-2.2 1.8-2.5 1.3-.8 2.9-1 4.4-1.2l.9-.2 3.6-.3 1.8-.1 4.3-.2h3.2a.3.3 0 1 1 0 .6H304l-4.3.1-1.8.1-3.6.3-.8.2c-1.5.2-3 .4-4.2 1.2-.4.3-1.4 1-1.6 2-.1.6.1 1.1.4 1.7l.2.4v.3h-.2l-.7.2h-.6l-.2.1-1.2.3c-.2 0-.4 0-.5.2h-.4l-.2.1h-.1Z" fill="#292929"/>
    <path d="M292.3 195.2a.3.3 0 0 1-.3-.3c0-2-.3-3.7-1-5.4v-.3c-.3-.9-.6-1.7-1.2-2.5a6 6 0 0 0-2.1-1.8.3.3 0 0 1-.1-.3c0-.2.2-.2.3-.1.8.4 1.8 1 2.4 2 .5.8.8 1.6 1.2 2.5v.4c.7 1.6 1 3.4 1 5.4v.1c0 .2 0 .3-.2.3ZM263.2 185.7a.3.3 0 0 1-.3-.3c0-.8 1-4 1.3-4.9l1-2.7.3-1.2a46.8 46.8 0 0 0 2.4-12c0-1-.3-1.8-.6-2.7l-.5-1.6c-.4-1.3-.9-2.6-1.2-4-.6-1.9-.8-3.8-1-5.6l.1-2.2.1-.8v-.2l.4-2.8.4-1.4c0-.5.2-1 .4-1.5l.7-2a58.2 58.2 0 0 0 1.2-4.1l.8-2.5.3-1.5.3-1.4.2-.6.4-1.4c0-.1.2-.2.4-.1 0 0 .2.2.1.3l-.4 1.3-.2.6-.3 1.5-.3 1.4-.8 2.5-.9 3.2a48 48 0 0 1-1 3l-.4 1.4-.4 1.5-.4 2.7V148.5c-.2.8-.2 1.4-.2 2.1.2 1.8.4 3.7 1 5.6l1.2 3.9.5 1.6c.3 1 .6 1.8.6 2.8l-.3 3c-.3 3-1.1 6-2.1 9.2l-.4 1.2c-.2 1-.5 1.9-.9 2.8-.4 1-1.2 4-1.3 4.7 0 .2 0 .3-.2.3ZM276.7 127.3c-.8 0-1.5-.4-2-1.2a8.5 8.5 0 0 1-1.5-4.3l-.1-.9-1.3 2v.3c-.7.9-1.9 2.7-3.2 2.8-.5 0-1 0-1.3-.5-1-1-1-2.2-1-3.3v-.3l.4-.2c.1 0 .2.1.2.3v.2c0 1.1-.1 2.2.7 3 .3.2.6.3 1 .3 1-.1 2.1-1.8 2.7-2.6l.1-.2a49.7 49.7 0 0 0 1.8-2.7c.1 0 .2 0 .3.2l.2 1.6c.3 1.4.5 2.8 1.4 4 .3.5 1.1 1.3 2.3.8.7-.2 2-.7 3.1-1.4a10 10 0 0 0 2.5-2.1h.3c.2 0 .2.2 0 .3-.6.9-1.5 1.6-2.5 2.2-1.2.7-2.5 1.3-3.2 1.5l-.9.2Z" fill="#292929"/>
    <path d="m272.3 126-.4.1c-.2.2-.3.5-.2.8 0 .2.1.3.3.4.2 0 .5-.1.6-.4.1 0 .2-.4.1-.6 0 0 0-.2-.2-.2v-.1h-.2Zm-.2 1.8h-.2a.9.9 0 0 1-.7-.7c-.2-.6 0-1.1.4-1.4.4-.3 1-.3 1.4 0l.1.2.1.3c.1.3 0 .8-.1 1-.3.4-.6.6-1 .6ZM269.7 139.3h-.2c-.2.2-.4.6-.4.9 0 .1 0 .4.2.6.3.2.5.1.5 0 .4 0 .6-.7.5-1.1v-.2l-.3-.1-.3-.1Zm0 2.2c-.2 0-.5-.1-.8-.4-.2-.2-.4-.6-.3-1 0-.4.2-.9.6-1.2.4-.3.7-.2 1 0h.1c.3.1.5.4.5.7.1.6-.2 1.4-.7 1.7l-.4.2ZM268.5 153.6l-.1.2-.2.3c0 .4 0 .8.2.9.1.2.2.2.3.2.3-.1.5-.7.4-1.1 0-.3-.2-.5-.5-.5h-.1Zm.2 2.1c-.2 0-.5 0-.7-.4-.3-.3-.4-.8-.3-1.2 0-.4.2-.6.4-.7 0 0 .2-.1.2 0 0-.2.2-.3.3-.3.5 0 1 .4 1 .9.2.6-.2 1.4-.6 1.6l-.3.1ZM269.2 174.7c0 .4 0 1 .2 1.1l.5-.1c.3-.3.4-.8 0-1.2 0 0-.2-.2-.4-.1l-.3.3Zm.3 1.7-.3-.2c-.5-.3-.6-1.1-.5-1.6l.1-.2.2-.2.1-.1.1-.1c.4-.3.8-.2 1.2.2.4.5.4 1.4-.2 1.9l-.7.3Z" fill="#292929"/>
    <path d="M225.3 112.8c-1-1.1-3.6-2.5-5.8-3.6-2-1-4.5.8-1.8 3.8a20 20 0 0 0 8 4.4" fill="#FAD1D5"/>
    <path d="M225.6 117.6a20 20 0 0 1-8-4.4c-1.9-2-1.3-3.2-1-3.7.6-.8 2-1 3-.5 2.2 1 4.8 2.4 5.9 3.6a.3.3 0 1 1-.4.4 24 24 0 0 0-5.7-3.5c-.9-.5-1.9-.3-2.3.3-.6.7-.2 1.8.8 3 2.7 2.9 7.8 4.3 7.8 4.3a.3.3 0 0 1 0 .5Z" fill="#292929"/>
    <path d="M262.1 191h-20.5l-8.3-24a6 6 0 0 0-5.3-4h-35c-2.3 0-3.5 1.8-2.8 4l8.5 24.8c1 2.4 1 4.4 3.5 4.4h60a2.6 2.6 0 0 0 0-5.2Z" fill="#FAAD3A"/>
    <path d="M262.1 190.8h-20.3c-.4 0 .1.3 0 0l-1-2.7-3.7-11.1-3.2-9.4c-1-2.7-3.1-4.8-6.2-4.8H197c-1.8 0-4.1-.3-5.8.4-2.6 1.3-1 4.7-.3 6.6l3.8 11 3.4 9.9c.7 2.2 1.2 5.7 4.1 5.7H262.1c3.7 0 3.6-5.4 0-5.6-.3 0-.3.5 0 .5 3.2.2 2.8 4.6-.2 4.6h-59.6c-2.3 0-2.7-2.4-3.3-4.2l-.7-2-7.2-21-.6-1.9c-.8-2.2.9-3.4 3-3.4H224.5c3 0 5.8-.3 7.9 2.4a5454.8 5454.8 0 0 0 2.6 7l6.3 18.3c0 .1 0 .2.2.2h20.5c.4 0 .4-.5 0-.5Z" fill="#FAAD3A"/>
    <path d="M239.8 192.2H199a.3.3 0 0 1 0-.5h40.8a.3.3 0 1 1 0 .5ZM213.2 176c-.6 0-1.1.3-1.5.8-.4.6-.5 1.6-.2 2.7.5 2 2.3 3.6 3.8 3.6.6 0 1.1-.3 1.5-.7.4-.7.5-1.7.2-2.8-.5-2-2.3-3.5-3.8-3.5Zm2.1 7.6c-1.7 0-3.7-1.8-4.3-4-.4-1.2-.3-2.4.3-3.1.5-.6 1.1-1 1.9-1 1.8 0 3.7 1.8 4.3 4 .4 1.2.3 2.4-.3 3.2-.5.6-1.1.9-1.9.9Z" fill="#292929"/>
    <path d="M261.7 92.8c-1.2-1.5-3-2.8-3.8-2.4-.8.3-1 1.5-.4 1.7.5.2.7-.7 2.4 0 1.5.7 2 1 1.8.7Z" fill="#ED4477"/>
    <path d="M258.8 91.6c.3 0 .8 0 1.2.3l.8.3c-1-1-2-1.6-2.6-1.6h-.2a1 1 0 0 0-.5 1l.1.3.3-.1.9-.2Zm2.9 1.6c-.1 0-.3 0-.6-.3a31.6 31.6 0 0 0-2.3-.8c-.3 0-.5 0-.7.2h-.7c-.3-.1-.5-.4-.5-.8 0-.5.3-1 .9-1.4h.4c1 0 2.7 1.3 3.7 2.5v.4l-.2.2Z" fill="#ED4477"/>
    <path d="M286.1 71.7h-.2c-.3.2-.5.6-.5 1.1a13.2 13.2 0 0 0 1.7 5.3c.5-1.4 1.6-4.7-.4-6.2a1 1 0 0 0-.6-.2Zm.8 7-.3-.2a14 14 0 0 1-1.7-5.7c0-.7.3-1.3.7-1.5.3-.1.8-.3 1.4.2 2.3 1.7 1.1 5.4.5 6.8a.3.3 0 0 1-.4.1.3.3 0 0 1-.2.2Z" fill="#292929"/>
    <path d="m287.4 78.5 2.4 1 .3.1c1 .4 1.8.8 2.7.7.5 0 .8-.2 1-.6.2-.3.2-.8 0-1.2-.7-1.2-2.3-1.4-3.4-1.1-1 .2-1.8.6-2.7 1l-.3.1Zm5.2 2.3c-.9 0-1.8-.4-2.7-.7l-.3-.1-2.9-1.2a.3.3 0 0 1 .1-.5s0-.2.2-.2l.5-.2c.9-.4 1.8-.8 2.8-1 1.3-.3 3.2-.1 4 1.3.3.6.3 1.3 0 1.8s-.8.8-1.5.8h-.2Z" fill="#292929"/>
    <path d="M290 81.1h-.2l-.7-.6-.9-.7-1.1-.8-.7-.5-2.8-2.6a.3.3 0 0 1 .4-.4c.9 1 1.7 1.8 2.7 2.6a23.4 23.4 0 0 1 1.8 1.3l1 .7c0 .2.2.3.4.4.1 0 .3 0 .3.3a.3.3 0 0 1-.3.3Z" fill="#292929"/>
    <path d="M101.9 195.8h13.4l19-17.3c.7-.6 1-1.2.9-1.8-.2-.6-.7-1-1.5-1.3l-36-11.6c-.8-.3-1.6-.1-2 .4-.3.4-.4 1-.3 1.8l6.5 29.8Zm13.5.5h-13.8l-.2-.2-6.5-30c-.2-1 0-1.7.4-2.3.5-.6 1.5-.8 2.6-.5l36 11.6c1 .3 1.6 1 1.8 1.7.1.7-.2 1.5-1 2.3l-19.2 17.3h-.1Z" fill="#FAD1D5"/>
    <path d="M105.1 10.6a9.8 9.8 0 0 0-.3 9c1 1.9 2.5 3 4 3 1.2 0 2.4-.7 3-1.9 1-1.7.9-4-.4-6.3a8.3 8.3 0 0 0-6.3-3.8Zm3.8 12.5h-.1c-1.7 0-3.3-1.2-4.4-3.3-1.5-2.6-1.3-6.1.2-9.2-1.9-.2-3.8 0-5.5.7-3.9 1.4-5.8 4.6-5 8.6a.3.3 0 1 1-.5 0c-.8-4.1 1.2-7.6 5.4-9.1a13 13 0 0 1 5.8-.7l1.6-2.3c3.2-3.5 7.6-4.4 12.3-2.5a.3.3 0 1 1-.2.5c-4.4-1.8-8.7-1-11.7 2.4l-1.4 2c2.7.4 5.1 1.7 6.4 4 1.4 2.4 1.6 5 .5 6.8a4 4 0 0 1-3.4 2Z" fill="#FAAD3A"/>
    <path d="M12 84.3c-.7 0-1.3.3-1.7 1-.8 1-1.1 3 0 5.3a5.5 5.5 0 0 0 4 3c1-2.3 1.2-5 .3-7-.6-1.4-1.5-2.2-2.5-2.3H12ZM8.4 98.6c-1 0-2.1-.2-3.2-.8a.3.3 0 0 1 .2-.5c2.6 1.3 5 1 7-1 .7-.6 1.3-1.4 1.7-2.3a6 6 0 0 1-4.3-3.2C8.6 88.2 9 86 9.8 85c.6-.9 1.5-1.3 2.4-1.2 1.1 0 2.2 1 2.9 2.6 1 2 .8 4.8-.2 7.2 1 .1 2 0 2.9-.2 2.4-.8 4.7-3 4-7a.3.3 0 1 1 .6 0c.6 4.3-1.9 6.7-4.5 7.5-1 .3-2.1.4-3.2.2-.5 1-1.1 1.9-1.9 2.6a6.2 6.2 0 0 1-4.4 2Z" fill="#FAD1D5"/>
    <path d="M323 128.4a9.1 9.1 0 0 0 6.4 5.4c2 .3 3.5-.1 4.4-1.2.7-1 .9-2.1.4-3.3-.6-1.7-2.4-2.9-4.8-3.2-2.4-.4-4.6.7-6.4 2.3Zm.3 14-.1-.1c-3.6-1.8-5-5.3-3.7-9.3.5-1.6 1.6-3.3 2.9-4.7-.4-.8-.6-1.6-.8-2.4-.7-4.4 1.1-8.2 5.2-10.5h.4l-.1.4c-3.9 2.3-5.7 5.9-5 10l.7 2.1a8.2 8.2 0 0 1 6.6-2.4c2.6.4 4.6 1.7 5.3 3.6.5 1.3.3 2.8-.5 3.8-1 1.2-2.8 1.7-5 1.4a9.6 9.6 0 0 1-6.6-5.5 11.6 11.6 0 0 0-2.6 4.4c-1.2 3.7 0 7 3.4 8.6a.3.3 0 0 1-.1.5Z" fill="#FAAD3A"/>
    <path d="M294.9 27.4c-.5 0-1 .1-1.4.4l-7.7 5.2c-.5.3-.8.9-1 1.5 0 .6 0 1.3.4 1.8l5.2 7.7a2.4 2.4 0 0 0 3.4.6l7.6-5.2c1.1-.7 1.4-2.2.7-3.3l-5.3-7.7c-.4-.6-1.1-1-2-1Zm-2.5 18.2a3 3 0 0 1-2.4-1.3l-5.2-7.7a2.9 2.9 0 0 1 .8-4l7.6-5.3c.5-.3 1-.5 1.7-.5 1 0 1.8.5 2.4 1.3l5.2 7.7a3 3 0 0 1-.8 4l-7.7 5.3c-.4.3-1 .5-1.6.5Z" fill="#FAD1D5"/>
    <path d="M264.5 15a3 3 0 1 0 0 6 3 3 0 0 0 0-6Zm0 6.5a3.5 3.5 0 1 1 0-7 3.5 3.5 0 0 1 0 7ZM30 53.5a2.5 2.5 0 1 1-5 0 2.5 2.5 0 0 1 5 0ZM35.7 48.5a2.5 2.5 0 1 1-5 0 2.5 2.5 0 0 1 5 0ZM36.7 55.8a2.5 2.5 0 1 1-5 0 2.5 2.5 0 0 1 5 0ZM184.2 183l-.9.2c-.5.3-1 .7-1.2 1.3a2.2 2.2 0 0 0 2.1 3 2.2 2.2 0 0 0 2.1-1.5c.2-.5.2-1.1 0-1.7a2.2 2.2 0 0 0-2-1.3Zm0 5a2.8 2.8 0 0 1-2.5-3.7 2.7 2.7 0 0 1 2.5-1.8 2.8 2.8 0 0 1 2.6 3.7 2.7 2.7 0 0 1-2.6 1.8ZM177.3 180c-.3 0-.6 0-1 .2a2.2 2.2 0 1 0 1-.2Zm0 5c-1 0-2-.7-2.5-1.6a2.8 2.8 0 1 1 2.5 1.6ZM183.5 176l-.9.2a2.2 2.2 0 1 0 1-.2Zm0 5a2.8 2.8 0 0 1 0-5.5 2.8 2.8 0 0 1 2.6 3.7 2.7 2.7 0 0 1-2.6 1.8Z" fill="#65B6DE"/>
    <path d="M316.4 93.4a2.2 2.2 0 0 0-2 1.5c-.3.6-.3 1.2 0 1.7a2.2 2.2 0 0 0 3 1.1 2.2 2.2 0 0 0-1-4.3Zm0 5a2.8 2.8 0 0 1-2.6-3.7 2.7 2.7 0 0 1 2.6-1.8c1 0 2 .6 2.5 1.6a2.8 2.8 0 0 1-2.5 4ZM309.5 90.4a2.2 2.2 0 0 0-2.1 1.5c-.2.5-.2 1.1 0 1.7a2.2 2.2 0 0 0 3 1 2.2 2.2 0 0 0-1-4.2Zm0 5a2.8 2.8 0 0 1-1.2-5.3l1.2-.2c1 0 2 .6 2.5 1.6a2.8 2.8 0 0 1-2.5 3.9ZM315.7 86.4l-1 .2a2.2 2.2 0 1 0 1-.2Zm0 5c-1 0-2-.6-2.5-1.6a2.8 2.8 0 1 1 2.5 1.6Z" fill="#5569AF"/>
    <path d="M333.2 196.6H.5a.5.5 0 0 1 0-1h332.7a.5.5 0 0 1 0 1Z" fill="#fff"/>
</svg>
